<?xml version="1.0" encoding="UTF-8" standalone="no"?>
<svg width="40px" height="40px" viewBox="0 0 40 40" version="1.1" xmlns="http://www.w3.org/2000/svg" xmlns:xlink="http://www.w3.org/1999/xlink">
    <!-- Generator: Sketch 3.6.1 (26313) - http://www.bohemiancoding.com/sketch -->
    <title>cap</title>
    <desc>Created with Sketch.</desc>
    <defs></defs>
    <g id="icons" stroke="none" stroke-width="1" fill="none" fill-rule="evenodd">
        <g id="cap" fill="#000000">
            <path d="M12.980257,19.9987964 C12.8003906,21.4179687 12.980257,22.6312001 12.980257,24.3861358 C12.980257,26.1410716 16.1391413,27.0185394 20,27.0185394 C23.8608587,27.0185394 27.019743,26.1410716 27.019743,24.3861358 L27.019743,19.9987964 L20.2983391,22.08717 C20.1052961,22.139818 19.8947039,22.139818 19.6665622,22.08717 L12.980257,19.9987964 Z M20.1930429,10.8731305 C20.0877468,10.8380318 19.9473519,10.8380318 19.8420558,10.8731305 L6.4343466,15.0498776 C5.8552178,15.2429205 5.8552178,16.0326416 6.4343466,16.2256845 L9.47038546,17.1908992 L9.47038546,20.2971355 C8.94390473,20.5954746 8.59291758,21.1746034 8.59291758,21.8063802 C8.59291758,22.139818 8.68066437,22.4381571 8.83860859,22.6838481 C8.69821373,22.9295391 8.59291758,23.2278782 8.59291758,23.561316 L8.59291758,28.0890503 C8.59291758,29.0542649 12.1027891,29.0542649 12.1027891,28.0890503 L12.1027891,23.561316 C12.1027891,23.2278782 12.0150423,22.9295391 11.8570981,22.6838481 C11.9974929,22.4381571 12.1027891,22.139818 12.1027891,21.8063802 C12.1027891,21.1395047 11.7518019,20.5954746 11.2253212,20.2971355 L11.2253212,17.7524787 L19.8069571,20.4375304 C19.9122532,20.4726291 20.0526481,20.4726291 20.1579442,20.4375304 L33.5656534,16.2607833 C34.1447822,16.0677403 34.1447822,15.2780192 33.5656534,15.0849763 L20.1754936,10.8906798 L20.1930429,10.8731305 Z M20.0350987,16.4889249 C19.069884,16.4889249 18.280163,16.102839 18.280163,15.611457 C18.280163,15.120075 19.069884,14.7339891 20.0350987,14.7339891 C21.0003134,14.7339891 21.7900345,15.120075 21.7900345,15.611457 C21.7900345,16.102839 21.0003134,16.4889249 20.0350987,16.4889249 L20.0350987,16.4889249 Z" id="Shape"></path>
        </g>
    </g>
</svg>