<?xml version="1.0" encoding="UTF-8" standalone="no"?>
<svg width="40px" height="40px" viewBox="0 0 40 40" version="1.1" xmlns="http://www.w3.org/2000/svg" xmlns:xlink="http://www.w3.org/1999/xlink">
    <!-- Generator: Sketch 3.7.2 (28276) - http://www.bohemiancoding.com/sketch -->
    <title>repo</title>
    <desc>Created with Sketch.</desc>
    <defs></defs>
    <g id="icons" stroke="none" stroke-width="1" fill="none" fill-rule="evenodd">
        <g id="repo" fill="#000000">
            <g id="repo-copy" transform="translate(11.000000, 10.000000)">
                <path d="M6.25,14.0625 L4.6875,14.0625 L4.6875,12.5 L6.25,12.5 L6.25,14.0625 L6.25,14.0625 Z M6.25,9.375 L4.6875,9.375 L4.6875,10.9375 L6.25,10.9375 L6.25,9.375 L6.25,9.375 Z M6.25,6.25 L4.6875,6.25 L4.6875,7.8125 L6.25,7.8125 L6.25,6.25 L6.25,6.25 Z M6.25,3.125 L4.6875,3.125 L4.6875,4.6875 L6.25,4.6875 L6.25,3.125 L6.25,3.125 Z M18.75,1.5625 L18.75,20.3125 C18.75,21.171875 18.046875,21.875 17.1875,21.875 L9.375,21.875 L9.375,25 L7.03125,22.65625 L4.6875,25 L4.6875,21.875 L1.5625,21.875 C0.703125,21.875 0,21.171875 0,20.3125 L0,1.5625 C0,0.703125 0.703125,0 1.5625,0 L17.1875,0 C18.046875,0 18.75,0.703125 18.75,1.5625 L18.75,1.5625 Z M17.1875,17.1875 L1.5625,17.1875 L1.5625,20.3125 L4.6875,20.3125 L4.6875,18.75 L9.375,18.75 L9.375,20.3125 L17.1875,20.3125 L17.1875,17.1875 L17.1875,17.1875 Z M17.1875,1.5625 L3.125,1.5625 L3.125,15.625 L17.1875,15.625 L17.1875,1.5625 L17.1875,1.5625 Z" id="Shape"></path>
            </g>
        </g>
    </g>
</svg>