<?xml version="1.0" encoding="UTF-8" standalone="no"?>
<svg width="40px" height="40px" viewBox="0 0 40 40" version="1.1" xmlns="http://www.w3.org/2000/svg" xmlns:xlink="http://www.w3.org/1999/xlink">
    <!-- Generator: Sketch 3.6.1 (26313) - http://www.bohemiancoding.com/sketch -->
    <title>about</title>
    <desc>Created with Sketch.</desc>
    <defs></defs>
    <g id="icons" stroke="none" stroke-width="1" fill="none" fill-rule="evenodd">
        <g id="about" fill="#263238">
            <path d="M18.8,16.0742857 C18.4742857,15.7485714 18.32,15.3542857 18.32,14.8742857 C18.32,14.3942857 18.4742857,13.9828571 18.8,13.6742857 C19.1257143,13.3657143 19.52,13.1942857 20,13.1942857 C20.48,13.1942857 20.8914286,13.3485714 21.2,13.6742857 C21.5085714,14 21.68,14.3942857 21.68,14.8742857 C21.68,15.3542857 21.5257143,15.7657143 21.2,16.0742857 C20.8742857,16.3828571 20.48,16.5885714 20,16.5885714 C19.52,16.5885714 19.1085714,16.4 18.8,16.0742857 L18.8,16.0742857 Z M21.7142857,20.0171429 C21.68,19.5885714 21.5257143,19.1942857 21.1828571,18.8342857 C20.84,18.5085714 20.4628571,18.32 20,18.3028571 L18.2857143,18.3028571 C17.8228571,18.3371429 17.4628571,18.5257143 17.1028571,18.8342857 C16.76,19.1771429 16.5885714,19.5885714 16.5714286,20.0171429 L18.2857143,20.0171429 L18.2857143,25.16 C18.32,25.6228571 18.4742857,26.0171429 18.8171429,26.3428571 C19.16,26.6857143 19.5371429,26.8742857 20,26.8742857 L21.7142857,26.8742857 C22.1771429,26.8742857 22.5371429,26.6857143 22.8971429,26.3428571 C23.24,26.0171429 23.4114286,25.6228571 23.4285714,25.16 L21.7142857,25.16 L21.7142857,20 L21.7142857,20.0171429 Z M20,10.2628571 C14.6171429,10.2628571 10.2285714,14.6171429 10.2285714,20 C10.2285714,25.3828571 14.6171429,29.7714286 20,29.7714286 C25.3828571,29.7714286 29.7714286,25.4 29.7714286,20 C29.7714286,14.6 25.3828571,10.2457143 20,10.2457143 L20,10.2628571 Z M20,8 C26.6171429,8 32,13.3828571 32,20 C32,26.6171429 26.6171429,32 20,32 C13.3828571,32 8,26.6514286 8,20 C8,13.3485714 13.3828571,8 20,8 L20,8 Z" id="Shape"></path>
        </g>
    </g>
</svg>