<?xml version="1.0" encoding="UTF-8" standalone="no"?>
<svg width="40px" height="40px" viewBox="0 0 40 40" version="1.1" xmlns="http://www.w3.org/2000/svg" xmlns:xlink="http://www.w3.org/1999/xlink">
    <!-- Generator: Sketch 3.6.1 (26313) - http://www.bohemiancoding.com/sketch -->
    <title>twitter</title>
    <desc>Created with Sketch.</desc>
    <defs></defs>
    <g id="icons" stroke="none" stroke-width="1" fill="none" fill-rule="evenodd">
        <g id="twitter" fill="#000000">
            <path d="M32.5,28.2694725 C31.5622593,27.8533186 30.5538196,27.5720523 29.49576,27.4453351 C30.5756449,28.0930608 31.4048188,29.1182146 31.7954353,30.339516 C30.7847571,29.7397873 29.6655122,29.3047741 28.4733298,29.0702922 C27.5195466,30.0867532 26.1598505,30.7221112 24.6552122,30.7221112 C21.7658814,30.7221112 19.4240479,28.3800912 19.4240479,25.4909469 C19.4240479,25.080781 19.469881,24.6813971 19.5594392,24.2987645 C15.2115457,24.5166442 11.3568661,26.5999321 8.77663346,29.7645972 C8.32630526,28.9923182 8.0683566,28.093807 8.0683566,27.1349312 C8.0683566,25.3197397 8.99152849,23.7188091 10.3956399,22.7803222 C9.53813041,22.8071281 8.73136,23.0425613 8.02601184,23.4346701 C8.02520971,23.4126583 8.02520971,23.3908703 8.02520971,23.3690077 C8.02520971,20.8339179 9.82868639,18.7200373 12.2216321,18.2391351 C11.7830373,18.1195624 11.3209943,18.0563251 10.8438416,18.0563251 C10.5064079,18.0563251 10.1792339,18.0882422 9.85926044,18.1495955 C10.5254164,16.0713442 12.4570279,14.5586846 14.74663,14.5163399 C12.9547562,13.1129933 10.6994403,12.2771038 8.24829388,12.2771038 C7.82631989,12.2771038 7.40958769,12.3019511 7,12.3500413 C9.31609087,10.8657733 12.0655161,10 15.0201362,10 C24.6422849,10 29.9034823,17.9710759 29.9034823,24.8846519 C29.9034823,25.111355 29.8982592,25.3365098 29.8887456,25.5608624 C30.9104297,26.2990231 31.7972448,27.220143 32.4990113,28.2694352" id="path22" transform="translate(19.750000, 20.361056) scale(1, -1) translate(-19.750000, -20.361056) "></path>
        </g>
    </g>
</svg>