<?xml version="1.0" encoding="UTF-8" standalone="no"?>
<svg width="40px" height="40px" viewBox="0 0 40 40" version="1.1" xmlns="http://www.w3.org/2000/svg" xmlns:xlink="http://www.w3.org/1999/xlink">
    <!-- Generator: Sketch 3.6.1 (26313) - http://www.bohemiancoding.com/sketch -->
    <title>blog</title>
    <desc>Created with Sketch.</desc>
    <defs></defs>
    <g id="icons" stroke="none" stroke-width="1" fill="none" fill-rule="evenodd">
        <g id="blog" fill="#263238">
            <path d="M20.2857143,14.8571429 L13.4285714,14.8571429 L13.4285714,13.1428571 L20.2857143,13.1428571 L20.2857143,14.8571429 L20.2857143,14.8571429 Z M13.4285714,20 L25.4285714,20 L25.4285714,18.2857143 L13.4285714,18.2857143 L13.4285714,20 L13.4285714,20 Z M13.4285714,23.4285714 L25.4285714,23.4285714 L25.4285714,21.7142857 L13.4285714,21.7142857 L13.4285714,23.4285714 L13.4285714,23.4285714 Z M13.4285714,26.8571429 L25.4285714,26.8571429 L25.4285714,25.1428571 L13.4285714,25.1428571 L13.4285714,26.8571429 L13.4285714,26.8571429 Z M30.5714286,14 L30.5714286,30.2857143 C30.5714286,31.2285714 29.8,32 28.8571429,32 L11.7142857,32 C10.7714286,32 10,31.2285714 10,30.2857143 L10,9.71428571 C10,8.77142857 10.7714286,8 11.7142857,8 L24.5714286,8 L30.5714286,14 L30.5714286,14 Z M28.8571429,14.8571429 L23.7142857,9.71428571 L11.7142857,9.71428571 L11.7142857,30.2857143 L28.8571429,30.2857143 L28.8571429,14.8571429 L28.8571429,14.8571429 Z" id="Shape"></path>
        </g>
    </g>
</svg>