<?xml version="1.0" encoding="UTF-8" standalone="no"?>
<svg width="40px" height="40px" viewBox="0 0 40 40" version="1.1" xmlns="http://www.w3.org/2000/svg" xmlns:xlink="http://www.w3.org/1999/xlink">
    <!-- Generator: Sketch 3.6.1 (26313) - http://www.bohemiancoding.com/sketch -->
    <title>dribbble</title>
    <desc>Created with Sketch.</desc>
    <defs></defs>
    <g id="icons" stroke="none" stroke-width="1" fill="none" fill-rule="evenodd">
        <g id="dribbble" fill="#000000">
            <path d="M19.9750004,8 C13.3619405,8 8,13.3619405 8,19.9750004 C8,26.5880603 13.3619405,31.9500008 19.9750004,31.9500008 C26.5880603,31.9500008 31.9500008,26.5880603 31.9500008,19.9750004 C31.9500008,13.3619405 26.5880603,8 19.9750004,8 L19.9750004,8 Z M29.8435241,19.4196565 C27.2710694,18.9983612 24.9092623,18.9728282 22.7581028,19.3494407 C22.5155388,18.7877136 22.2602083,18.2259865 21.9921113,17.6706426 C24.2964691,16.6748537 26.1476152,15.3152188 27.5263999,13.5981212 C28.8732683,15.1875535 29.7158589,17.2046645 29.8435241,19.4196565 L29.8435241,19.4196565 Z M26.0071834,12.1491206 C24.8071301,13.7002534 23.1474818,14.9258398 21.0282387,15.8194965 C20.0133,13.9619671 18.8579295,12.1491206 17.5493606,10.3937234 C18.3281187,10.1958423 19.138793,10.0809436 19.9750004,10.0809436 C22.2474418,10.0809436 24.3347686,10.8597016 26.0071834,12.1491206 L26.0071834,12.1491206 Z M15.5130999,11.1597149 C16.8408185,12.8959623 18.0217221,14.6896591 19.0430441,16.5280387 C16.6174043,17.242964 13.7194032,17.60681 10.3745736,17.6323431 C11.063966,14.8045578 12.9725615,12.4491339 15.5130999,11.1597149 L15.5130999,11.1597149 Z M10.0809436,19.9750004 C10.0809436,19.892018 10.0937101,19.8026523 10.0937101,19.7196699 C13.9364341,19.7132866 17.2493473,19.2728415 20.0260665,18.3983346 C20.2558639,18.870696 20.4792781,19.3494407 20.696309,19.8281853 C17.3259465,20.8814237 14.542844,23.0453496 12.378918,26.2944302 C10.942684,24.5837159 10.0809436,22.3751071 10.0809436,19.9750004 L10.0809436,19.9750004 Z M13.9045178,27.7689638 C15.8705626,24.6858481 18.3791848,22.6815037 21.4878336,21.7559306 C22.4134066,24.1688038 23.0964157,26.6582762 23.5240943,29.1988146 C22.4197899,29.6264932 21.2261198,29.8690572 19.9750004,29.8690572 C17.6834092,29.8690572 15.5833158,29.0775327 13.9045178,27.7689638 L13.9045178,27.7689638 Z M25.4646061,28.1966424 C25.024161,25.8476018 24.3858347,23.5496274 23.5496274,21.3154855 C25.4199233,21.0537717 27.481717,21.1176044 29.7350087,21.5133666 C29.3009468,24.2900858 27.7115145,26.6965758 25.4646061,28.1966424 L25.4646061,28.1966424 Z" id="Shape"></path>
        </g>
    </g>
</svg>