<?xml version="1.0" encoding="UTF-8" standalone="no"?>
<svg width="40px" height="40px" viewBox="0 0 40 40" version="1.1" xmlns="http://www.w3.org/2000/svg" xmlns:xlink="http://www.w3.org/1999/xlink">
    <!-- Generator: Sketch 3.6.1 (26313) - http://www.bohemiancoding.com/sketch -->
    <title>experiment</title>
    <desc>Created with Sketch.</desc>
    <defs></defs>
    <g id="icons" stroke="none" stroke-width="1" fill="none" fill-rule="evenodd">
        <g id="experiment" fill="#000000">
            <path d="M31.3254743,27.8917108 L25.739134,15.3472366 L25.739134,8.736183 L27.3918974,8.736183 L27.3918974,7.0834196 L12.5170268,7.0834196 L12.5170268,8.736183 L14.1697902,8.736183 L14.1697902,15.3472366 L8.59997751,27.8917108 C8.10414849,28.9825347 8.91400256,30.2221072 10.1039922,30.2221072 L29.8379872,30.2221072 C31.0279769,30.2221072 31.8213033,28.9825347 31.3420019,27.8917108 L31.3254743,27.8917108 Z M13.7565993,20.3055268 L15.8225536,15.3472366 L15.8225536,8.736183 L24.0863706,8.736183 L24.0863706,15.3472366 L26.1523248,20.3055268 L13.7565993,20.3055268 L13.7565993,20.3055268 Z M20.7808438,17 L22.4336072,17 L22.4336072,18.6527634 L20.7808438,18.6527634 L20.7808438,17 L20.7808438,17 Z M19.1280804,15.3472366 L17.475317,15.3472366 L17.475317,13.6944732 L19.1280804,13.6944732 L19.1280804,15.3472366 L19.1280804,15.3472366 Z M19.1280804,10.3889464 L20.7808438,10.3889464 L20.7808438,12.0417098 L19.1280804,12.0417098 L19.1280804,10.3889464 L19.1280804,10.3889464 Z M19.1280804,5.4306562 L17.475317,5.4306562 L17.475317,3.7778928 L19.1280804,3.7778928 L19.1280804,5.4306562 L19.1280804,5.4306562 Z" id="Shape"></path>
        </g>
    </g>
</svg>