<?xml version="1.0" encoding="UTF-8" standalone="no"?>
<svg width="40px" height="40px" viewBox="0 0 40 40" version="1.1" xmlns="http://www.w3.org/2000/svg" xmlns:xlink="http://www.w3.org/1999/xlink">
    <!-- Generator: Sketch 3.6.1 (26313) - http://www.bohemiancoding.com/sketch -->
    <title>eye</title>
    <desc>Created with Sketch.</desc>
    <defs></defs>
    <g id="icons" stroke="none" stroke-width="1" fill="none" fill-rule="evenodd">
        <g id="eye" fill="#000000">
            <path d="M19.58625,12 C12.3125,12 8,21 8,21 C8,21 12.3125,30 19.58625,30 C26.6875,30 31,21 31,21 C31,21 26.6875,12 19.58625,12 L19.58625,12 Z M19.5,27 C16.3375,27 13.75,24.33 13.75,21 C13.75,17.7 16.3375,15 19.5,15 C22.69125,15 25.25,17.7 25.25,21 C25.25,24.33 22.69125,27 19.5,27 L19.5,27 Z M22.375,21 C22.375,22.665 21.095625,24 19.5,24 C17.904375,24 16.625,22.665 16.625,21 C16.625,19.335 17.904375,18 19.5,18 C21.095625,18 22.375,19.335 22.375,21 L22.375,21 Z" id="Shape"></path>
        </g>
    </g>
</svg>