<?xml version="1.0" encoding="UTF-8" standalone="no"?>
<svg width="40px" height="40px" viewBox="0 0 40 40" version="1.1" xmlns="http://www.w3.org/2000/svg" xmlns:xlink="http://www.w3.org/1999/xlink">
    <!-- Generator: Sketch 3.6.1 (26313) - http://www.bohemiancoding.com/sketch -->
    <title>tool</title>
    <desc>Created with Sketch.</desc>
    <defs></defs>
    <g id="icons" stroke="none" stroke-width="1" fill="none" fill-rule="evenodd">
        <g id="tool" fill="#000000">
            <path d="M13.7142857,15.2857143 C13.7142857,14.4214286 14.4214286,13.7142857 15.2857143,13.7142857 C16.15,13.7142857 16.8571429,14.4214286 16.8571429,15.2857143 C16.8571429,16.15 16.15,16.8571429 15.2857143,16.8571429 C14.4214286,16.8571429 13.7142857,16.15 13.7142857,15.2857143 L13.7142857,15.2857143 Z M26.2857143,15.2857143 C26.2857143,14.4214286 25.5785714,13.7142857 24.7142857,13.7142857 C23.85,13.7142857 23.1428571,14.4214286 23.1428571,15.2857143 C23.1428571,16.15 23.85,16.8571429 24.7142857,16.8571429 C25.5785714,16.8571429 26.2857143,16.15 26.2857143,15.2857143 L26.2857143,15.2857143 Z M26.2857143,24.7142857 C26.2857143,23.85 25.5785714,23.1428571 24.7142857,23.1428571 C23.85,23.1428571 23.1428571,23.85 23.1428571,24.7142857 C23.1428571,25.5785714 23.85,26.2857143 24.7142857,26.2857143 C25.5785714,26.2857143 26.2857143,25.5785714 26.2857143,24.7142857 L26.2857143,24.7142857 Z M29.4285714,9 L16.8571429,9 L16.8571429,12.41 C17.4228571,12.7085714 17.8628571,13.1485714 18.1614286,13.7142857 L21.8385714,13.7142857 C22.4985714,12.4885714 23.9285714,11.7028571 25.5157143,12.0642857 C26.6942857,12.3628571 27.6528571,13.3214286 27.92,14.5 C28.4071429,16.6685714 26.7885714,18.57 24.6985714,18.57 C23.4414286,18.57 22.3728571,17.8785714 21.8228571,16.8571429 L18.1614286,16.8571429 C17.5014286,18.1142857 16.0714286,18.8685714 14.4842857,18.4757143 C13.3371429,18.2085714 12.3785714,17.25 12.0957143,16.0871429 C11.7028571,14.4842857 12.4571429,13.07 13.7142857,12.41 L13.7142857,9 L10.5714286,9 C9.70714286,9 9,9.70714286 9,10.5714286 L9,29.4285714 C9,30.2928571 9.70714286,31 10.5714286,31 L18.4285714,23.1428571 L21.8385714,23.1428571 C22.4985714,21.9171429 23.9285714,21.1314286 25.5157143,21.4928571 C26.6942857,21.7914286 27.6528571,22.75 27.92,23.9285714 C28.4071429,26.0971429 26.7885714,27.9985714 24.6985714,27.9985714 C23.4414286,27.9985714 22.3728571,27.3071429 21.8228571,26.2857143 L19.9842857,26.2857143 L15.2857143,31 L29.4285714,31 C30.2928571,31 31,30.2928571 31,29.4285714 L31,10.5714286 C31,9.70714286 30.2928571,9 29.4285714,9 L29.4285714,9 Z" id="Shape"></path>
        </g>
    </g>
</svg>