<?xml version="1.0" encoding="UTF-8" standalone="no"?>
<svg width="40px" height="40px" viewBox="0 0 40 40" version="1.1" xmlns="http://www.w3.org/2000/svg" xmlns:xlink="http://www.w3.org/1999/xlink">
    <!-- Generator: Sketch 3.6.1 (26313) - http://www.bohemiancoding.com/sketch -->
    <title>instagram</title>
    <desc>Created with Sketch.</desc>
    <defs></defs>
    <g id="icons" stroke="none" stroke-width="1" fill="none" fill-rule="evenodd">
        <g id="instagram" fill="#231F1F">
            <path d="M29.0809594,31.8297894 L10.7490405,31.8297894 C9.23094193,31.8297894 8,30.5984264 8,29.0792752 L8,10.7490405 C8,9.2307314 9.23094193,8 10.7490405,8 L29.0809594,8 C30.5992685,8 31.8299999,9.2307314 31.8299999,10.7490405 L31.8299999,29.0792752 C31.8299999,30.5984264 30.5992685,31.8297894 29.0809594,31.8297894 L29.0809594,31.8297894 Z M19.9148947,15.3319676 C17.383748,15.3319676 15.3321781,17.3833269 15.3321781,19.9144736 C15.3321781,22.4451993 17.383748,24.4976113 19.9148947,24.4976113 C22.4460414,24.4976113 24.4980323,22.4451993 24.4980323,19.9144736 C24.4980323,17.3833269 22.4460414,15.3319676 19.9148947,15.3319676 L19.9148947,15.3319676 Z M29.0809594,11.6654575 C29.0809594,11.159565 28.6704349,10.7490405 28.1634898,10.7490405 L25.4144493,10.7490405 C24.9081358,10.7490405 24.4980323,11.159565 24.4980323,11.6654575 L24.4980323,14.4155506 C24.4980323,14.9214431 24.9081358,15.3319676 25.4144493,15.3319676 L28.1634898,15.3319676 C28.6704349,15.3319676 29.0809594,14.9214431 29.0809594,14.4155506 L29.0809594,11.6654575 Z M29.0809594,18.0807975 L27.0064423,18.0807975 C27.1575995,18.6675318 27.2468623,19.2805817 27.2468623,19.9144736 C27.2468623,23.964561 23.9643505,27.2468623 19.9148947,27.2468623 C15.8656494,27.2468623 12.5829271,23.964561 12.5829271,19.9144736 C12.5829271,19.2805817 12.6726109,18.6675318 12.8237682,18.0807975 L10.7490405,18.0807975 L10.7490405,28.1634898 C10.7490405,28.6689613 11.159565,29.0792752 11.6665101,29.0792752 L28.1634898,29.0792752 C28.6704349,29.0792752 29.0809594,28.6689613 29.0809594,28.1634898 L29.0809594,18.0807975 Z" id="Fill-1"></path>
        </g>
    </g>
</svg>