<?xml version="1.0" encoding="UTF-8" standalone="no"?>
<svg width="40px" height="40px" viewBox="0 0 40 40" version="1.1" xmlns="http://www.w3.org/2000/svg" xmlns:xlink="http://www.w3.org/1999/xlink">
    <!-- Generator: Sketch 3.6.1 (26313) - http://www.bohemiancoding.com/sketch -->
    <title>projects</title>
    <desc>Created with Sketch.</desc>
    <defs></defs>
    <g id="icons" stroke="none" stroke-width="1" fill="none" fill-rule="evenodd">
        <g id="projects" fill="#263238">
            <path d="M29.4736842,14.4285714 C29.4736842,12.3671429 27.8295263,10.7142857 25.7789474,10.7142857 C23.7283684,10.7142857 22.0842105,12.3671429 22.0842105,14.4285714 C22.0842105,15.7842857 22.8416316,16.9914286 23.9315789,17.6228571 L23.9315789,18.18 C23.8946316,19.1457143 23.5066842,20 22.7677368,20.7428571 C22.0287895,21.4857143 21.179,21.8757143 20.2183684,21.9128571 C18.6850526,21.95 17.4842632,22.21 16.5236316,22.7485714 L16.5236316,13.9085714 C17.6135789,13.2771429 18.371,12.0885714 18.371,10.7142857 C18.371,8.65285714 16.7268421,7 14.6762632,7 C12.6256842,7 11,8.65285714 11,10.7142857 C11,12.07 11.7574211,13.2771429 12.8473684,13.9085714 L12.8473684,26.0914286 C11.7574211,26.7414286 11,27.93 11,29.2857143 C11,31.3471429 12.6441579,33 14.6947368,33 C16.7453158,33 18.3894737,31.3471429 18.3894737,29.2857143 C18.3894737,28.3014286 18.02,27.4285714 17.4103684,26.76 C17.5766316,26.6485714 18.2971053,25.9985714 18.5003158,25.8871429 C18.9621579,25.6828571 19.5348421,25.5714286 20.2368421,25.5714286 C22.1765789,25.4785714 23.8392105,24.7357143 25.3171053,23.25 C26.795,21.7642857 27.5339474,19.5728571 27.6263158,17.6414286 L27.5893684,17.6414286 C28.7162632,16.9728571 29.4736842,15.7842857 29.4736842,14.4285714 L29.4736842,14.4285714 Z M14.6947368,8.48571429 C15.914,8.48571429 16.9115789,9.50714286 16.9115789,10.7142857 C16.9115789,11.9214286 15.8955263,12.9428571 14.6947368,12.9428571 C13.4939474,12.9428571 12.4778947,11.9214286 12.4778947,10.7142857 C12.4778947,9.50714286 13.4939474,8.48571429 14.6947368,8.48571429 L14.6947368,8.48571429 Z M14.6947368,31.5328571 C13.4754737,31.5328571 12.4778947,30.5114286 12.4778947,29.3042857 C12.4778947,28.0971429 13.4939474,27.0757143 14.6947368,27.0757143 C15.8955263,27.0757143 16.9115789,28.0971429 16.9115789,29.3042857 C16.9115789,30.5114286 15.8955263,31.5328571 14.6947368,31.5328571 L14.6947368,31.5328571 Z M25.7789474,16.6757143 C24.5596842,16.6757143 23.5621053,15.6542857 23.5621053,14.4471429 C23.5621053,13.24 24.5781579,12.2185714 25.7789474,12.2185714 C26.9797368,12.2185714 27.9957895,13.24 27.9957895,14.4471429 C27.9957895,15.6542857 26.9797368,16.6757143 25.7789474,16.6757143 L25.7789474,16.6757143 Z" id="Shape"></path>
        </g>
    </g>
</svg>